<?xml version="1.0" encoding="UTF-8"?>
<svg width="21px" height="25px" viewBox="0 0 21 25" version="1.1" xmlns="http://www.w3.org/2000/svg" xmlns:xlink="http://www.w3.org/1999/xlink">
    <title>apple</title>
    <g id="HBO-Web-HF-Final" stroke="none" stroke-width="1" fill="none" fill-rule="evenodd">
        <g id="00.1-Create-Account" transform="translate(-982.000000, -319.000000)" fill="#FFFFFF" fill-rule="nonzero">
            <g id="apple" transform="translate(982.000000, 319.000000)">
                <path d="M12.731204,6.11121068 C11.7440698,6.44989748 11.0327455,6.61932848 10.5972312,6.61950368 C10.2584783,6.61950368 9.57376888,6.46944513 8.54310281,6.16932803 C7.51243674,5.86921092 6.63416822,5.71915237 5.90829726,5.71915237 C4.20501564,5.71915237 2.79447387,6.43545639 1.67667195,7.86806442 C0.558890651,9.29997166 0,11.1531775 0,13.427682 C0.00438994671,14.6866159 0.190173353,15.9383477 0.55162246,17.1442862 C0.949399952,18.4620087 1.49994518,19.7286805 2.19203591,20.9184822 C2.92753252,22.2056075 3.66789607,23.1709527 4.41312654,23.8145179 C5.15826942,24.4580729 5.90829726,24.7798503 6.66321007,24.7798503 C7.16642344,24.7798503 7.82209363,24.6128824 8.63022062,24.2789466 C9.43834762,23.9450108 10.1472526,23.7780558 10.7569356,23.7780816 C11.3666134,23.7780816 12.1142193,23.9378225 12.9997535,24.2573043 C13.8852464,24.5769716 14.5796407,24.7367125 15.0829366,24.736527 C15.7216768,24.736527 16.3603965,24.4945299 16.9990955,24.0105355 C17.6377946,23.5265411 18.2765323,22.795796 18.9153086,21.8183002 C19.319576,21.2076682 19.6856192,20.5725737 20.0113343,19.916667 C20.3041895,19.3274874 20.5493491,18.7157822 20.744458,18.0874275 C19.8637264,17.826416 19.0798155,17.2022284 18.3927254,16.2148646 C17.70993,15.2419419 17.3494394,14.0793868 17.3619975,12.8908443 C17.3648589,12.0845826 17.5458021,11.288909 17.8918927,10.560701 C18.2451098,9.80089597 18.9588353,8.96623682 20.0330693,8.05672359 C19.3459792,7.20498505 18.6201675,6.58308533 17.8556342,6.19102445 C17.0635672,5.79271074 16.1871672,5.59116724 15.3006731,5.60346646 C14.5748408,5.60343554 13.7183434,5.77269392 12.731204,6.11121068 Z" id="Path"></path>
                <path d="M15.0539205,0 C13.3215712,0.396286287 12.0803724,1.13178756 11.3303239,2.2065038 C10.5802961,3.2806893 10.1956308,4.55320602 10.1763279,6.02405397 C10.9311686,5.98548427 11.5360465,5.86448568 11.9909615,5.66105821 C12.4909065,5.42601682 12.9435417,5.10133901 13.3264356,4.70311514 C13.9225654,4.12336502 14.392138,3.42641243 14.7055575,2.65618478 C14.9959038,1.92068094 15.1410692,1.24330217 15.1410692,0.624048487 C15.1410692,0.527353706 15.1361842,0.430658924 15.126538,0.333423085 C15.1133199,0.220178875 15.0890102,0.108506849 15.0539591,0 L15.0539205,0 Z" id="Path"></path>
            </g>
        </g>
    </g>
</svg>