<?xml version="1.0" encoding="UTF-8"?>
<svg width="19px" height="20px" viewBox="0 0 19 20" version="1.1" xmlns="http://www.w3.org/2000/svg" xmlns:xlink="http://www.w3.org/1999/xlink">
    <title>calendar</title>
    <g id="HBO-Web-HF-Final" stroke="none" stroke-width="1" fill="none" fill-rule="evenodd">
        <g id="00.1.3-Create-Account" transform="translate(-1258.000000, -532.000000)" fill="#31403B" fill-rule="nonzero" stroke="#FFFFFF" stroke-width="0.6">
            <g id="calendar" transform="translate(1259.000000, 533.000000)">
                <path d="M2.36122144,17.808043 L14.7872766,17.808043 C16.0898999,17.808043 17.1484981,16.7494448 17.1484981,15.4468216 L17.1484981,3.68031126 C17.1484981,2.37768804 16.0898999,1.31908982 14.7872766,1.31908982 L13.8507185,1.31908982 L13.8507185,0.65954491 C13.8507185,0.296784195 13.5538792,0 13.1911185,0 C12.8283578,0 12.5315736,0.296784195 12.5315736,0.65954491 L12.5315736,1.31908982 L4.61692451,1.31908982 L4.61692451,0.65954491 C4.61692451,0.296784195 4.32008525,0 3.95732453,0 C3.59456382,0 3.29777962,0.296784195 3.29777962,0.65954491 L3.29777962,1.31908982 L2.36122144,1.31908982 C1.05859822,1.31908982 0,2.37768804 0,3.68031126 L0,15.4468216 C0,16.7494448 1.05859822,17.808043 2.36122144,17.808043 Z M1.31914489,3.68031126 C1.31914489,3.1065138 1.78742398,2.63823471 2.36122144,2.63823471 L3.29777962,2.63823471 L3.29777962,3.29777962 C3.29777962,3.66054034 3.59456382,3.95732453 3.95732453,3.95732453 C4.32008525,3.95732453 4.61686944,3.66054034 4.61686944,3.29777962 L4.61686944,2.63823471 L12.5315736,2.63823471 L12.5315736,3.29777962 C12.5315736,3.66054034 12.8283578,3.95732453 13.1911185,3.95732453 C13.5538792,3.95732453 13.8506634,3.66054034 13.8506634,3.29777962 L13.8506634,2.63823471 L14.7872216,2.63823471 C15.361019,2.63823471 15.8292981,3.1065138 15.8292981,3.68031126 L15.8292981,15.4468216 C15.8292981,16.020619 15.361019,16.4888981 14.7872216,16.4888981 L2.36122144,16.4888981 C1.78742398,16.4888981 1.31914489,16.020619 1.31914489,15.4468216 L1.31914489,3.68031126 Z" id="Shape"></path>
                <circle id="Oval" cx="4.78181074" cy="6.76044547" r="1"></circle>
                <circle id="Oval" cx="8.40936282" cy="6.76044547" r="1"></circle>
                <circle id="Oval" cx="12.0369149" cy="6.76044547" r="1"></circle>
                <circle id="Oval" cx="4.78181074" cy="10.0582251" r="1"></circle>
                <circle id="Oval" cx="8.40936282" cy="10.0582251" r="1"></circle>
                <circle id="Oval" cx="12.0369149" cy="10.0582251" r="1"></circle>
                <circle id="Oval" cx="4.78181074" cy="13.3560047" r="1"></circle>
                <circle id="Oval" cx="8.40936282" cy="13.3560047" r="1"></circle>
                <circle id="Oval" cx="12.0369149" cy="13.3560047" r="1"></circle>
            </g>
        </g>
    </g>
</svg>