<?xml version="1.0" encoding="UTF-8"?>
<svg width="20px" height="14px" viewBox="0 0 20 14" version="1.1" xmlns="http://www.w3.org/2000/svg" xmlns:xlink="http://www.w3.org/1999/xlink">
    <title>eye</title>
    <g id="HBO-Web-HF-Final" stroke="none" stroke-width="1" fill="none" fill-rule="evenodd">
        <g id="00.1.2-Create-Account" transform="translate(-1255.000000, -453.000000)" fill="#BEC7C4" fill-rule="nonzero">
            <g id="eye" transform="translate(1255.000000, 453.000000)">
                <path d="M9.95350948,0 C5.56271069,0 1.77842301,2.58835026 0.0400425474,6.32351909 C-0.0133475158,6.43670602 -0.0133475158,6.56911338 0.0400425474,6.68443591 C1.77842301,10.4195834 5.56273204,13.007955 9.95350948,13.007955 C14.3442869,13.007955 18.128596,10.4196047 19.8669764,6.68443591 C19.9203665,6.57124898 19.9203665,6.43884162 19.8669764,6.32351909 C18.128596,2.58835026 14.3443083,0 9.95350948,0 Z M9.95350948,10.9919676 C7.47407495,10.9919676 5.46660857,8.98234423 5.46660857,6.5050453 C5.46660857,4.02561077 7.47621055,2.01814439 9.95350948,2.01814439 C12.432944,2.01814439 14.4404104,4.02774637 14.4404104,6.5050453 C14.4404104,8.98234423 12.4308084,10.9919676 9.95350948,10.9919676 Z" id="Shape"></path>
                <circle id="Oval" cx="9.95350948" cy="6.5029097" r="2.8723854"></circle>
            </g>
        </g>
    </g>
</svg>