<?xml version="1.0" encoding="UTF-8"?>
<svg width="28px" height="28px" viewBox="0 0 28 28" version="1.1" xmlns="http://www.w3.org/2000/svg" xmlns:xlink="http://www.w3.org/1999/xlink">
    <title>google</title>
    <g id="HBO-Web-HF-Final" stroke="none" stroke-width="1" fill="none" fill-rule="evenodd">
        <g id="00.1-Create-Account" transform="translate(-976.000000, -379.000000)" fill-rule="nonzero">
            <g id="google" transform="translate(976.000000, 379.000000)">
                <circle id="Oval" fill="#5C5560" cx="14" cy="14" r="14"></circle>
                <circle id="Oval" fill="#EEEEEE" cx="14" cy="14" r="14"></circle>
                <g id="Group-4" transform="translate(1.700016, 1.700016)">
                    <path d="M24.3850469,10.0021797 L19.2433828,10.0021797 L12.5703047,10.0021797 L12.5703047,14.8681094 L19.1474062,14.8681094 C18.5554141,16.4481406 17.4314766,17.7680781 15.9933594,18.6114687 C14.9100547,19.2474297 13.6475937,19.6117031 12.2999844,19.6117031 C9.16485937,19.6117031 6.49058594,17.63825 5.45185156,14.8660312 C5.15178125,14.0678672 4.98826562,13.2028203 4.98826562,12.2999297 C4.98826562,11.4679687 5.12744531,10.6684922 5.38294531,9.92375781 C6.36961719,7.05217188 9.09392969,4.98821094 12.2999844,4.98821094 C13.7198906,4.98821094 15.0451875,5.39300781 16.1663906,6.09388281 L20.1510859,2.83166406 C18.0208437,1.06307031 15.2844453,7.10542736e-15 12.2999844,7.10542736e-15 C7.54627344,7.10542736e-15 3.42239844,2.69653125 1.37528125,6.64338281 C0.496015625,8.33694531 -3.07901852e-14,10.2603047 -3.07901852e-14,12.2999844 C-3.07901852e-14,14.4092266 0.530523437,16.3941094 1.46589844,18.1289609 C3.54336719,21.9818047 7.61589062,24.5999687 12.2999844,24.5999687 C15.2147734,24.5999687 17.8924375,23.5862812 20.0003125,21.8919531 C22.1676875,20.1496641 23.7321875,17.6876875 24.3310156,14.8681094 C24.5074375,14.0395391 24.5999687,13.1805625 24.5999687,12.2999844 C24.5999687,11.5146719 24.5263047,10.7462578 24.3850469,10.0021797 Z" id="Path" fill="#FBBB00"></path>
                    <path d="M19.9996562,21.8912969 L20.0003672,21.8920078 C17.8924375,23.5862812 15.2148281,24.5999687 12.2999844,24.5999687 C7.61589062,24.5999687 3.54336719,21.9818594 1.46589844,18.1289609 L5.45190625,14.8660859 C6.49064062,17.6383047 9.16485937,19.6117578 12.3000391,19.6117578 C13.6476484,19.6117578 14.9101094,19.2474844 15.9934141,18.6115234 L19.9996562,21.8912969 Z" id="Path" fill="#28B446"></path>
                    <path d="M24.3850469,10.0021797 C24.5263047,10.7462578 24.5999687,11.5146719 24.5999687,12.2999844 C24.5999687,13.1805625 24.5073828,14.0395391 24.3310156,14.8681094 C23.7322422,17.6876328 22.1676875,20.1496641 20.0003125,21.8919531 L19.9996016,21.8912422 L15.9933047,18.6114688 C17.4314766,17.7680234 18.5553594,16.4481406 19.1473516,14.8681094 L12.57025,14.8681094 L12.57025,10.0021797 L19.2433828,10.0021797 L24.3850469,10.0021797 Z" id="Path" fill="#518EF8"></path>
                    <path d="M20.1510312,2.83171875 L16.1663906,6.0939375 C15.0451875,5.3930625 13.7199453,4.98826563 12.2999844,4.98826563 C9.093875,4.98826563 6.36961719,7.05222656 5.38294531,9.9238125 L1.37599219,6.64338281 L1.37528125,6.64338281 C3.42239844,2.69653125 7.54621875,7.6975463e-15 12.2999844,7.6975463e-15 C15.2844453,7.6975463e-15 18.0208437,1.06307031 20.1510312,2.83171875 Z" id="Path" fill="#FC3F1D"></path>
                </g>
            </g>
        </g>
    </g>
</svg>