<?xml version="1.0" encoding="UTF-8"?>
<svg width="24px" height="24px" viewBox="0 0 24 24" version="1.1" xmlns="http://www.w3.org/2000/svg" xmlns:xlink="http://www.w3.org/1999/xlink">
    <title>location-marker</title>
    <g id="HBO-Web-HF-Final" stroke="none" stroke-width="1" fill="none" fill-rule="evenodd">
        <g id="00.1.3-Create-Account" transform="translate(-894.000000, -414.000000)" fill="#31403B" fill-rule="nonzero" stroke-width="0.5">
            <g id="location-marker" transform="translate(894.872000, 415.120000)">
                <path d="M10.993478,19.7847132 C8.64638967,19.7847132 6.43823477,18.8712997 4.77694554,17.2100105 C3.11565631,15.5487213 2.20224284,13.3435224 2.20224284,10.993478 C2.20224284,8.64343364 3.11565631,6.43823477 4.77694554,4.77694554 C6.43823477,3.11565631 8.64638967,2.20224284 10.993478,2.20224284 C13.3405664,2.20224284 15.5487213,3.11565631 17.2100105,4.77694554 C18.8712997,6.43823477 19.7847132,8.64343364 19.7847132,10.993478 C19.7847132,13.3435224 18.8712997,15.5487213 17.2100105,17.2100105 C15.5487213,18.8683437 13.3405664,19.7847132 10.993478,19.7847132 L10.993478,19.7847132 Z M10.993478,3.62113756 C6.92893586,3.62113756 3.62113756,6.92893586 3.62113756,10.993478 C3.62113756,15.0580202 6.92893586,18.3658185 10.993478,18.3658185 C15.0580202,18.3658185 18.3658185,15.0580202 18.3658185,10.993478 C18.3658185,6.92893586 15.0580202,3.62113756 10.993478,3.62113756 L10.993478,3.62113756 Z" id="Shape" stroke="#E0FBFF"></path>
                <path d="M10.993478,13.1336442 C9.81402178,13.1336442 8.85331182,12.1729342 8.85331182,10.993478 C8.85331182,9.81402178 9.81402178,8.85331182 10.993478,8.85331182 C12.1729342,8.85331182 13.1336442,9.81402178 13.1336442,10.993478 C13.1336442,12.1729342 12.1729342,13.1336442 10.993478,13.1336442 Z M10.993478,10.2722065 C10.5944139,10.2722065 10.2722065,10.5973699 10.2722065,10.993478 C10.2722065,11.3895861 10.5973699,11.7147495 10.993478,11.7147495 C11.3895861,11.7147495 11.7147495,11.3895861 11.7147495,10.993478 C11.7147495,10.5973699 11.3925422,10.2722065 10.993478,10.2722065 Z" id="Shape" stroke="#E0FBFF"></path>
                <path d="M5.11393304,11.7029254 L0.709447358,11.7029254 C0.31629528,11.7029254 -3.55271368e-15,11.3866301 -3.55271368e-15,10.993478 C-3.55271368e-15,10.6003259 0.31629528,10.2840307 0.709447358,10.2840307 L5.11393304,10.2840307 C5.50708511,10.2840307 5.8233804,10.6003259 5.8233804,10.993478 C5.8233804,11.3866301 5.50708511,11.7029254 5.11393304,11.7029254 Z" id="Path" stroke="#E0FBFF"></path>
                <path d="M21.2745526,11.7029254 L16.870067,11.7029254 C16.4769149,11.7029254 16.1606196,11.3866301 16.1606196,10.993478 C16.1606196,10.6003259 16.4769149,10.2840307 16.870067,10.2840307 L21.2745526,10.2840307 C21.6677047,10.2840307 21.984,10.6003259 21.984,10.993478 C21.984,11.3866301 21.6677047,11.7029254 21.2745526,11.7029254 Z" id="Path" stroke="#E0FBFF"></path>
                <path d="M10.993478,5.8233804 C10.6003259,5.8233804 10.2840307,5.50708511 10.2840307,5.11393304 L10.2840307,0.709447358 C10.2840307,0.31629528 10.6003259,0 10.993478,0 C11.3866301,0 11.7029254,0.31629528 11.7029254,0.709447358 L11.7029254,5.11393304 C11.7029254,5.50708511 11.3866301,5.8233804 10.993478,5.8233804 Z" id="Path" stroke="#F2F2F2"></path>
                <path d="M10.993478,21.984 C10.6003259,21.984 10.2840307,21.6677047 10.2840307,21.2745526 L10.2840307,16.870067 C10.2840307,16.4769149 10.6003259,16.1606196 10.993478,16.1606196 C11.3866301,16.1606196 11.7029254,16.4769149 11.7029254,16.870067 L11.7029254,21.2745526 C11.7029254,21.6677047 11.3866301,21.984 10.993478,21.984 Z" id="Path" stroke="#E0FBFF"></path>
            </g>
        </g>
    </g>
</svg>